<svg width="30" height="31" viewBox="0 0 30 31" fill="none" xmlns="http://www.w3.org/2000/svg">
<path d="M15.125 7.61328C10.875 7.61328 7.48828 11.0664 7.48828 15.25C7.48828 19.5 10.875 22.8867 15.125 22.8867C19.3086 22.8867 22.7617 19.5 22.7617 15.25C22.7617 11.0664 19.3086 7.61328 15.125 7.61328ZM15.125 20.2305C12.4023 20.2305 10.1445 18.0391 10.1445 15.25C10.1445 12.5273 12.3359 10.3359 15.125 10.3359C17.8477 10.3359 20.0391 12.5273 20.0391 15.25C20.0391 18.0391 17.8477 20.2305 15.125 20.2305ZM24.8203 7.34766C24.8203 6.35156 24.0234 5.55469 23.0273 5.55469C22.0312 5.55469 21.2344 6.35156 21.2344 7.34766C21.2344 8.34375 22.0312 9.14062 23.0273 9.14062C24.0234 9.14062 24.8203 8.34375 24.8203 7.34766ZM29.8672 9.14062C29.7344 6.75 29.2031 4.625 27.4766 2.89844C25.75 1.17188 23.625 0.640625 21.2344 0.507812C18.7773 0.375 11.4062 0.375 8.94922 0.507812C6.55859 0.640625 4.5 1.17188 2.70703 2.89844C0.980469 4.625 0.449219 6.75 0.316406 9.14062C0.183594 11.5977 0.183594 18.9688 0.316406 21.4258C0.449219 23.8164 0.980469 25.875 2.70703 27.668C4.5 29.3945 6.55859 29.9258 8.94922 30.0586C11.4062 30.1914 18.7773 30.1914 21.2344 30.0586C23.625 29.9258 25.75 29.3945 27.4766 27.668C29.2031 25.875 29.7344 23.8164 29.8672 21.4258C30 18.9688 30 11.5977 29.8672 9.14062ZM26.6797 24.0156C26.2148 25.3438 25.1523 26.3398 23.8906 26.8711C21.8984 27.668 17.25 27.4688 15.125 27.4688C12.9336 27.4688 8.28516 27.668 6.35938 26.8711C5.03125 26.3398 4.03516 25.3438 3.50391 24.0156C2.70703 22.0898 2.90625 17.4414 2.90625 15.25C2.90625 13.125 2.70703 8.47656 3.50391 6.48438C4.03516 5.22266 5.03125 4.22656 6.35938 3.69531C8.28516 2.89844 12.9336 3.09766 15.125 3.09766C17.25 3.09766 21.8984 2.89844 23.8906 3.69531C25.1523 4.16016 26.1484 5.22266 26.6797 6.48438C27.4766 8.47656 27.2773 13.125 27.2773 15.25C27.2773 17.4414 27.4766 22.0898 26.6797 24.0156Z" fill="black"/>
</svg>
