<svg width="122" height="72" viewBox="0 0 122 72" fill="none" xmlns="http://www.w3.org/2000/svg">
<rect x="1" y="1" width="120" height="70" stroke="black" stroke-width="2"/>
<path d="M26.5287 20.6488C26.5287 22.2326 25.9909 23.4479 24.9155 24.2949C23.8468 25.135 22.3017 25.555 20.2801 25.555H15.4916V10.4542H25.3137V13.7285H19.545V16.0318H20.127C22.2166 16.0318 23.806 16.4174 24.8951 17.1886C25.9841 17.953 26.5287 19.1064 26.5287 20.6488ZM19.545 22.4047H20.0861C20.9301 22.4047 21.5359 22.2636 21.9035 21.9812C22.2711 21.6989 22.4549 21.2823 22.4549 20.7314C22.4549 20.1806 22.2575 19.7743 21.8627 19.5126C21.4747 19.251 20.8757 19.1201 20.0657 19.1201H19.545V22.4047Z" fill="black"/>
<path d="M39.6895 20.5455C39.6895 22.1568 39.1449 23.3963 38.0559 24.2639C36.9736 25.1247 35.4353 25.555 33.4409 25.555H29.0301V10.4542H33.0835V15.8252H33.2878C35.3706 15.8252 36.9566 16.2246 38.0456 17.0234C39.1415 17.8153 39.6895 18.9893 39.6895 20.5455ZM33.0835 22.4047H33.2469C34.8261 22.4047 35.6156 21.8125 35.6156 20.6282C35.6156 19.4851 34.8193 18.9136 33.2265 18.9136H33.0835V22.4047ZM45.111 25.555H41.0474V10.4542H45.111V25.555Z" fill="black"/>
<path d="M54.974 13.5838C54.0142 13.5838 53.2655 13.9832 52.7277 14.782C52.19 15.5739 51.9212 16.6687 51.9212 18.0666C51.9212 20.9724 53.0136 22.4254 55.1986 22.4254C55.8588 22.4254 56.4987 22.3324 57.1181 22.1465C57.7375 21.9606 58.3603 21.7368 58.9865 21.4751V24.925C57.7409 25.4827 56.3319 25.7616 54.7596 25.7616C52.5065 25.7616 50.7776 25.1006 49.5728 23.7785C48.3748 22.4564 47.7759 20.5455 47.7759 18.0459C47.7759 16.4828 48.0651 15.1091 48.6437 13.9247C49.2291 12.7403 50.0663 11.8314 51.1554 11.1979C52.2513 10.5575 53.5377 10.2373 55.0148 10.2373C56.628 10.2373 58.1697 10.5919 59.64 11.3012L58.4046 14.5134C57.8532 14.2518 57.3019 14.0314 56.7505 13.8524C56.1992 13.6734 55.607 13.5838 54.974 13.5838Z" fill="black"/>
<path d="M68.4921 25.555H64.4591V13.7904H60.8141V10.4542H72.1269V13.7904H68.4921V25.555Z" fill="black"/>
<path d="M85.0937 15.2571C85.0937 16.9442 84.6002 18.2491 83.6132 19.1718C82.6331 20.0876 81.2377 20.5455 79.4271 20.5455H78.2938V25.555H74.2608V10.4542H79.4271C81.3126 10.4542 82.7284 10.8708 83.6745 11.704C84.6206 12.5372 85.0937 13.7216 85.0937 15.2571ZM78.2938 17.2196H79.0289C79.6347 17.2196 80.1146 17.0475 80.4685 16.7032C80.8293 16.3589 81.0097 15.8837 81.0097 15.2778C81.0097 14.2587 80.4515 13.7491 79.3352 13.7491H78.2938V17.2196Z" fill="black"/>
<path d="M96.6311 25.555L95.896 22.7249H91.0462L90.2906 25.555H85.8595L90.7297 10.3922H96.1104L101.042 25.555H96.6311ZM95.0587 19.3784L94.4155 16.8994C94.2658 16.3485 94.082 15.6359 93.8642 14.7613C93.6532 13.8868 93.5136 13.2602 93.4456 12.8815C93.3843 13.2327 93.2618 13.8111 93.078 14.6167C92.901 15.4224 92.5028 17.0096 91.8834 19.3784H95.0587Z" fill="black"/>
<path d="M108.373 20.0601L105.422 25.555H100.848L104.942 18.9549C104.187 18.5279 103.608 17.9667 103.206 17.2713C102.805 16.5689 102.604 15.7839 102.604 14.9163C102.604 11.9416 104.632 10.4542 108.689 10.4542H113.641V25.555H109.608V20.0601H108.373ZM109.608 13.5425H108.75C108.104 13.5425 107.597 13.6734 107.229 13.935C106.862 14.1967 106.678 14.5858 106.678 15.1022C106.678 15.7288 106.851 16.2005 107.199 16.5173C107.552 16.834 108.104 16.9924 108.853 16.9924H109.608V13.5425Z" fill="black"/>
<path d="M31.358 48.678C30.4051 48.678 29.5338 48.5747 28.7443 48.3681V45.1248C29.3841 45.3796 30.1941 45.507 31.1743 45.507C31.5963 45.507 31.9502 45.4106 32.2361 45.2178C32.5288 45.0181 32.767 44.6704 32.9508 44.1746L28.0806 33.3706H32.4301L34.2679 37.9772C34.336 38.1563 34.4177 38.3697 34.513 38.6176C34.6151 38.8655 34.7138 39.1237 34.8091 39.3923C34.9043 39.654 34.9928 39.9156 35.0745 40.1773C35.1562 40.439 35.2209 40.6662 35.2685 40.859H35.4114C35.6429 39.9225 35.9866 38.8277 36.4427 37.5744L37.964 33.3706H42.3135L37.7802 43.968C37.2152 45.2901 36.6605 46.2645 36.1159 46.8911C35.5714 47.5108 34.918 47.9653 34.1556 48.2545C33.4001 48.5368 32.4675 48.678 31.358 48.678Z" fill="black"/>
<path d="M54.7289 43.5652C54.7289 45.1489 54.1912 46.3643 53.1157 47.2113C52.0471 48.0513 50.5019 48.4714 48.4804 48.4714H43.6918V33.3706H53.5139V36.6448H47.7452V38.9482H48.3272C50.4169 38.9482 52.0062 39.3338 53.0953 40.105C54.1844 40.8693 54.7289 42.0227 54.7289 43.5652ZM47.7452 45.3211H48.2864C49.1304 45.3211 49.7362 45.1799 50.1038 44.8976C50.4713 44.6153 50.6551 44.1987 50.6551 43.6478C50.6551 43.0969 50.4577 42.6907 50.0629 42.429C49.6749 42.1673 49.0759 42.0365 48.2659 42.0365H47.7452V45.3211Z" fill="black"/>
<path d="M71.1978 40.9003C71.1978 43.4412 70.5818 45.3727 69.3498 46.6948C68.1177 48.0169 66.314 48.678 63.9384 48.678C61.5969 48.678 59.7999 48.0135 58.5475 46.6845C57.3019 45.3555 56.6791 43.4206 56.6791 40.8797C56.6791 38.3663 57.2985 36.4486 58.5373 35.1265C59.7829 33.7975 61.5901 33.133 63.9588 33.133C66.3344 33.133 68.1348 33.7906 69.36 35.1058C70.5852 36.421 71.1978 38.3525 71.1978 40.9003ZM60.9264 40.9003C60.9264 43.8199 61.9304 45.2798 63.9384 45.2798C64.9594 45.2798 65.715 44.9251 66.2051 44.2159C66.7019 43.5066 66.9504 42.4014 66.9504 40.9003C66.9504 39.3923 66.6985 38.2802 66.1948 37.5641C65.698 36.8411 64.9526 36.4796 63.9588 36.4796C61.9372 36.4796 60.9264 37.9531 60.9264 40.9003Z" fill="black"/>
<path d="M84.7261 38.1735C84.7261 39.8605 84.2327 41.1654 83.2457 42.0881C82.2655 43.004 80.8701 43.4619 79.0595 43.4619H77.9262V48.4714H73.8932V33.3706H79.0595C80.945 33.3706 82.3608 33.7872 83.3069 34.6204C84.2531 35.4535 84.7261 36.6379 84.7261 38.1735ZM77.9262 40.136H78.6614C79.2672 40.136 79.747 39.9638 80.101 39.6195C80.4617 39.2752 80.6421 38.8001 80.6421 38.1941C80.6421 37.175 80.084 36.6655 78.9677 36.6655H77.9262V40.136Z" fill="black"/>
<path d="M100.154 48.4714H95.5897L91.1585 40.8177V48.4714H87.1051V33.3706H91.1585V40.6834L95.4263 33.3706H99.8575L95.2527 40.5801L100.154 48.4714Z" fill="black"/>
<path d="M110.844 48.4714L110.108 45.6413H105.259L104.503 48.4714H100.072L104.942 33.3086H110.323L115.254 48.4714H110.844ZM109.271 42.2947L108.628 39.8158C108.478 39.2649 108.294 38.5522 108.077 37.6777C107.866 36.8032 107.726 36.1766 107.658 35.7978C107.597 36.149 107.474 36.7274 107.29 37.5331C107.113 38.3388 106.715 39.926 106.096 42.2947H109.271Z" fill="black"/>
</svg>
