<svg width="33" height="34" viewBox="0 0 33 34" fill="none" xmlns="http://www.w3.org/2000/svg">
<path d="M16.5312 0.78125C7.43359 0.78125 0.0625 8.15234 0.0625 17.25C0.0625 26.3477 7.43359 33.7188 16.5312 33.7188C25.6289 33.7188 33 26.3477 33 17.25C33 8.15234 25.6289 0.78125 16.5312 0.78125ZM24.5664 12.0703L21.9102 24.8203C21.7109 25.75 21.1797 25.9492 20.3828 25.5508L16.2656 22.4961L14.2734 24.4219C14.0742 24.6211 13.875 24.8203 13.4766 24.8203L13.7422 20.6367L21.3789 13.7305C21.7109 13.4648 21.3125 13.2656 20.8477 13.5312L11.418 19.5078L7.36719 18.2461C6.50391 17.9805 6.50391 17.3164 7.56641 16.918L23.4375 10.8086C24.168 10.543 24.832 11.0078 24.5664 12.0703Z" fill="black"/>
</svg>
