<svg width="34" height="35" viewBox="0 0 34 35" fill="none" xmlns="http://www.w3.org/2000/svg">
<path d="M29.4843 3.57042C28.621 2.83995 25.1679 0.316514 17.5976 0.316514C17.5976 0.316514 8.63277 -0.214736 4.24996 3.76964C1.79292 6.22667 0.929644 9.7462 0.863237 14.1954C0.796831 18.5782 0.664019 26.879 8.63277 29.1368V32.5235C8.63277 32.5235 8.56636 33.9181 9.49605 34.2501C10.625 34.5821 11.2226 33.5196 12.2851 32.3907C12.8828 31.7267 13.6796 30.8634 14.2773 30.1329C19.7226 30.5978 23.9062 29.5353 24.4375 29.4025C25.5 29.004 31.7421 28.2071 32.7382 19.9728C33.8007 11.4064 32.2734 6.02745 29.4843 3.57042ZM30.3476 19.3087C29.5507 26.215 24.4375 26.6798 23.5078 27.0118C23.1093 27.0782 19.457 28.0079 14.8085 27.7423C14.8085 27.7423 11.3554 31.8595 10.2929 32.9884C9.96089 33.3204 9.56246 33.3204 9.56246 32.59C9.56246 32.1251 9.56246 26.879 9.56246 26.879C2.85542 25.0196 3.25386 17.9806 3.32027 14.3282C3.38667 10.6095 4.05074 7.6212 6.10933 5.56261C9.82808 2.17589 17.4648 2.70714 17.4648 2.70714C23.9062 2.70714 26.9609 4.69933 27.6914 5.29698C30.082 7.35558 31.2773 12.2032 30.3476 19.3087ZM21.1171 13.9962C21.0507 12.0704 20.0546 11.0079 18.1953 10.8751C17.5976 10.8751 17.5312 11.7384 18.1289 11.7384C19.5234 11.8712 20.1875 12.5353 20.3203 13.9962C20.3203 14.5939 21.1835 14.5275 21.1171 13.9962ZM22.5117 14.7267C22.5117 15.2579 23.375 15.3243 23.375 14.7267C23.4414 11.5392 21.3828 8.88292 17.5312 8.6173C16.9335 8.55089 16.8671 9.41417 17.4648 9.48058C20.7851 9.6798 22.5781 11.9376 22.5117 14.7267ZM25.6328 15.59C25.5664 9.81261 21.6484 6.42589 16.7343 6.35948C16.2031 6.35948 16.2031 7.22276 16.7343 7.22276C21.1171 7.28917 24.7031 10.211 24.7695 15.59C24.7695 16.1876 25.6328 16.1876 25.6328 15.59ZM24.8359 22.0978C25.1679 21.5001 25.1015 20.9689 24.6367 20.5704C23.7734 19.7735 22.5781 18.9103 21.582 18.379C20.8515 17.9806 20.121 18.2462 19.789 18.6446L19.1914 19.4415C18.8593 19.84 18.2617 19.7735 18.2617 19.7735C13.8125 18.6446 12.6171 14.1954 12.6171 14.1954C12.6171 14.1954 12.6171 13.5978 13.0156 13.2657L13.8125 12.6017C14.2109 12.2696 14.4101 11.5392 14.0117 10.8087C13.8125 10.4103 13.3476 9.6798 13.0156 9.28136C12.6835 8.75011 11.8203 7.82042 11.8203 7.82042C11.4882 7.28917 10.8906 7.22276 10.2929 7.5548H10.2265C8.9648 8.21886 7.57027 9.61339 8.03511 10.9415C8.03511 10.9415 8.36714 12.1368 9.76167 14.6603C10.4257 15.922 11.1562 16.9181 11.8203 17.7814C12.5507 18.711 13.5468 19.7071 14.6093 20.5704C16.7343 22.2306 19.9882 23.9571 21.3828 24.3556H21.4492C22.7773 24.8204 24.1718 23.4259 24.8359 22.1642V22.0978Z" fill="black"/>
</svg>
